<?xml version="1.0" encoding="utf-8"?>
<!-- Generator: Adobe Illustrator 16.0.0, SVG Export Plug-In . SVG Version: 6.00 Build 0)  -->
<!DOCTYPE svg PUBLIC "-//W3C//DTD SVG 1.1//EN" "http://www.w3.org/Graphics/SVG/1.1/DTD/svg11.dtd">
<svg version="1.1" id="Layer_1" xmlns="http://www.w3.org/2000/svg" xmlns:xlink="http://www.w3.org/1999/xlink" x="0px" y="0px"
	 width="1080px" height="1920px" viewBox="0 0 1080 1920" enable-background="new 0 0 1080 1920" xml:space="preserve">
<g>
	<path fill="#FFFFFF" d="M562.142,960.331c-8.441,0.574-14.492-4.627-21.194-8.105c-18-9.336-21.077-7.782-22.84,12.306
		c-0.058,0.645,0.267,1.322,0.665,3.131c15.976-7.377,31.53-7.064,47.561,0.147C566.563,963.548,566.746,960.021,562.142,960.331z"
		/>
	<path fill="#FFFFFF" d="M561.411,979.961c-12.08-7.424-23.987-6.945-36.417-2.137c-16.435,6.359-11.406,22.268-15.455,34.295
		C520.002,990.139,537.06,979.471,561.411,979.961z"/>
	<path fill="#FFFFFF" d="M553.706,903.691c-4.004-1.14-6.176,3.7-9.25,5.772c-3.29,2.221-4.274,4.584-0.07,6.94
		c4.178,2.344,7.453,6.254,13.239,7.516c1.213-4.253,0.374-7.705-0.717-10.96C555.848,909.787,557.546,904.782,553.706,903.691z"/>
	<path fill="#FFFFFF" d="M543.468,886.489c1.356,4.006,4.811,7.838,10.416,9.789c-1.182-6.054-2.158-11.058-3.256-16.677
		C546.813,881.387,542.292,883.021,543.468,886.489z"/>
	<path fill="#FFFFFF" d="M540.461,870.929c-3.991-0.515-5.812,1.303-6.11,5.079c-0.147,1.877-2.039,4.445,0.752,5.358
		c3.125,1.021,4.729-2.245,6.851-3.829c1.871-1.399,3.482-3.146,7.184-6.563C544.597,870.974,542.499,871.189,540.461,870.929z"/>
	<path fill="#FFFFFF" d="M539.436,943.141c-0.065,2.017,16.853,11.131,20.549,11.216c3.043,0.069,4.797-0.825,3.814-5.13
		c-3.047-5.272,0.867-14.098-6.758-18.473C555.403,929.812,539.491,941.535,539.436,943.141z"/>
	<path fill="#FFFFFF" d="M414.628,893.365c26.782,19.916,53.522,39.89,81.444,60.719c5.313-28.208,10.211-54.499,15.268-80.76
		c1.02-5.314,0.76-9.152-5.09-11.943c-9.016-4.301-16.373-11.142-22.185-19.195c-3.179-4.405-5.954-4.643-10.52-2.668
		c-13.564,5.867-27.126,11.82-41.021,16.825c-11.452,4.126-21.834,8.085-18.719,23.538c0.376,1.869-0.822,4.104-1.458,6.114
		C411.389,889.027,411.954,891.376,414.628,893.365z"/>
	<path fill="#FFFFFF" d="M616.169,763.841c-4.16,2.452-6.332,4.796-4.257,10.035c4.107,10.362,4.614,21.325,3.297,32.249
		c-0.62,5.125,0.95,7.648,5.636,9.508c17.979,7.129,35.884,14.443,53.697,21.974c3.791,1.603,6.33,1.608,9.172-1.654
		c6.92-7.938,15.869-12.826,25.994-15.242c3.912-0.934,4.879-2.867,5.283-6.462c3.277-29.016,6.738-58.008,10.031-86.061
		c2.021-11.712-9.34-10.464-13.436-15.846c-2.979-3.912-6.107-1.567-9.207,0.281C673.671,729.741,644.962,746.864,616.169,763.841z"
		/>
	<path fill="#FFFFFF" d="M369.085,811.637c0.603,5.603,2.204,8.715,8.197,9.976c8.778,1.844,16.458,6.549,22.362,13.25
		c3.788,4.302,7.008,4.209,11.79,2.166c17.134-7.323,34.369-14.42,51.718-21.218c5.136-2.012,6.768-4.729,6.157-10.202
		c-1.143-10.188-1.275-20.646,2.718-30.21c2.793-6.695,0.194-9.271-5.023-12.328c-27.917-16.364-55.677-32.999-83.498-49.527
		c-2.096-1.248-4.239-2.411-5.856-3.328c-6.653-0.031-18.782,12.675-18.105,18.614C362.69,756.434,366.116,784.01,369.085,811.637z"
		/>
	<path fill="#FFFFFF" d="M378.874,1031.732c-5.686,2.057-6.817,0.901-8.081-4.478c-2.894-12.315-10.742-19.817-21.269-20.25
		c-11.468-0.469-19.33,5.365-23.718,15.922c-1.015,2.439-1.537,6.709-5.321,4.437c-12.129-7.299-21.416-2.953-29.746,7.229
		c-5.239-8.41-10.673-15.297-20.946-15.047c-3.995,0.098-3.886-2.516-4.266-5.602c-1.614-13.123-6.378-18.577-17.508-19.169
		c7.708,11.427,16.117,22.455,25.22,33.021c4.687,1.355,7.725,5.596,10.443,9.782c2.598,4,3.482,5.881,7.947,1.535
		c7.439-7.24,17.003-9.078,26.378-4.562c5.065,2.439,6.952,0.99,10.344-2.391c11.046-11.01,27.357-10.289,37.125,1.848
		c3.38,4.199,5.908,4.968,11.083,3.89c15.535-3.242,27.064,6.303,27.711,22.174c0.187,4.572-0.067,9.162-0.013,13.742
		c0.031,2.532,1.491,3.812,4.013,3.793c2.567-0.019,3.837-1.394,3.844-3.925c0.017-6.344,0.185-12.694-0.018-19.032
		C411.478,1035.406,397.012,1025.168,378.874,1031.732z"/>
	<path fill="#FFFFFF" d="M528.87,904.071c0.073,2.925-1.265,6.724,2.479,6.196c6.188-0.871,12.022-5.479,13.282-10.546
		c1.041-4.184-5.815-11.34-9.444-10.685C527.493,890.428,532.053,899.711,528.87,904.071z"/>
	<path fill="#FFFFFF" d="M555.757,661.7c0.002,5.278,0.002,10.559,0.007,15.839c0,13.378,0.093,26.752-0.058,40.128
		c-0.046,4.199,0.313,7.221,5.406,8.45c11.475,2.768,21.61,8.432,30.332,16.372c2.889,2.632,5.286,2.622,8.399,0.76
		c29.883-17.868,59.862-35.574,89.666-53.576c6.865-4.147,5.465-25.325-1.807-28.657c-32.916-15.088-65.923-29.977-98.91-44.906
		c-2.8-1.27-5.252-2.68-8.729-0.419C555.817,631.465,555.757,631.374,555.757,661.7z"/>
	<path fill="#FFFFFF" d="M684.196,858.305c24.1-21.358,48.153-23.09,72.739-0.539c-1.93-12.97-13.748-23.453-28.619-26.229
		C710.394,828.193,694.335,837.492,684.196,858.305z"/>
	<path fill="#FFFFFF" d="M782.081,661.829c0.25-4.461-1.566-7.118-3.107-9.745c-8.186-13.96-25.219-22.101-40.404-19.436
		c-15.543,2.726-27.438,13.209-30.254,26.684c-0.473,0.209-0.944,0.417-1.418,0.624c0.24,0.372,0.48,0.741,0.722,1.113
		c0.284-0.521,0.569-1.038,0.851-1.558c7.562-6.249,14.912-12.699,24.941-15.013C752.921,639.993,768.45,646.864,782.081,661.829z"
		/>
	<path fill="#FFFFFF" d="M579.592,568.756c0.067,0.47,0.134,0.94,0.2,1.411c0.297-0.166,0.59-0.331,0.883-0.494
		C580.314,569.366,579.954,569.061,579.592,568.756z"/>
	<path fill="#FFFFFF" d="M377.348,662.095c0.206-0.254,0.558-0.489,0.591-0.764c0.139-1.101-0.118-1.977-1.511-1.898
		c-3.566-14.735-17.14-25.728-33.501-27.13c-16.91-1.447-32.035,8.051-39.483,25.195c6.861-1.305,10.491-7.192,16.134-9.756
		c21.883-9.944,40.14-3.262,56.74,11.791C376.663,660.386,377.005,661.241,377.348,662.095z"/>
	<path fill="#FFFFFF" d="M467.887,1062.414c0.146-3.287-0.909-5.682-4.699-5.187c-6.831,0.896-7.255-3.155-7.071-8.321
		c0.248-7.029,0.299-14.086-0.007-21.111c-0.229-5.193,1.177-7.334,6.953-7.602c21.375-0.99,21.371-1.232,25.057-22.142
		c0.368-2.078,0.163-4.379,0.992-6.231c3.125-7.017-0.343-10.769-5.756-14.728c-24.708-18.057-49.362-36.205-73.613-54.871
		c-8.811-6.778-16.566-12.784-27.205-3.44c-2.169,1.903-5.864,2.549-8.94,2.822c-4.271,0.381-6.133,2.67-7.259,6.356
		c-6.161,20.166-12.268,40.35-18.657,60.445c-1.56,4.908-0.891,6.867,4.703,7.356c11.287,0.986,19.584,7.197,25.56,16.621
		c1.682,2.652,2.861,4.941,6.903,5.354c29.383,2.991,38.612,13.366,38.62,42.621c0.006,22.771,0.006,22.771,22.297,22.771
		c23.707,0,23.707,0,22.145-19.66C467.879,1063.117,467.873,1062.764,467.887,1062.414z"/>
	<path fill="#FFFFFF" d="M793.664,1034.408c-8.681-9.623-17.578-14.324-29.406-7.141c-4.742,2.883-4.623-2.445-5.838-4.888
		c-5.426-10.899-14.244-16.596-24.072-15.401c-10.254,1.248-17.776,8.438-20.83,19.725c-0.615,2.271,0.041,4.996-2.197,6.742
		c-18.934-6.625-30.846-3.283-36.916,10.158c-2.596,5.752-2.553,11.897-1.651,17.662c0.854,5.454-4.629,15.44,3.877,15.541
		c7.707,0.09,3.145-9.736,3.379-14.933c0.828-18.024,11.354-27.182,29.211-23.77c3.91,0.75,5.885,0.6,8.662-2.798
		c11.006-13.463,25.744-14.354,38.584-2.909c2.275,2.028,3.691,5.084,7.83,3.012c11.738-5.872,22.199-2.937,30.962,4.906
		c6.386-6.741,12.466-13.698,18.253-20.844C804.646,1020.258,798.446,1025.903,793.664,1034.408z"/>
	<path fill="#FFFFFF" d="M608.812,1031.755c-44.311,0.039-88.623,0.06-132.934-0.029c-4.99-0.012-8.738-0.125-8.577,6.929
		c0.149,6.604,3.834,6.235,8.246,6.227c22.154-0.055,44.31-0.027,66.466-0.029c22.154,0,44.312-0.071,66.466,0.054
		c5.048,0.028,8.737-0.058,8.627-7C616.998,1031.253,613.19,1031.751,608.812,1031.755z"/>
	<path fill="#FFFFFF" d="M697.041,1017.704c5.258,0.129,7.268-1.498,9.678-5.492c5.549-9.182,13.748-15.443,24.59-16.309
		c7.123-0.57,6.816-3.136,5.033-8.568c-4.828-14.703-9.643-29.445-13.477-44.428c-3.179-12.407-7.045-23.267-22.15-24.588
		c-1.32-0.115-2.84-0.824-3.791-1.75c-6.055-5.886-10.889-2.912-16.412,1.309c-21.271,16.244-41.852,33.689-64.543,47.674
		c-18.854,11.617-25.601,24.771-17.295,45.281c0.391,0.961,0.5,2.053,0.627,3.102c0.543,4.5,2.601,6.486,7.574,6.566
		c6.875,0.104,15.887-3.41,20.119,1.756c4.328,5.277,0.983,14.217,1.409,21.539c0.118,2.107-0.122,4.238,0.035,6.338
		c0.341,4.494-0.551,7.771-6.139,7.025c-5.691-0.761-5.955,2.76-6.15,7.112c-0.854,18.861-0.954,18.857,17.867,18.857
		c1.41,0,2.821,0,4.23-0.002c4.229,0,8.5-0.398,12.673,0.088c7.567,0.881,11.123-1.344,10.284-9.701
		c-0.7-6.973-0.287-14.078-0.103-21.121C661.65,1031.954,676.512,1017.189,697.041,1017.704z"/>
	<path fill="#FFFFFF" d="M523.678,933.807c-0.354,2.242-2.436,5.16,0.611,6.463c1.977,0.847,5.199,0.709,7.024-0.387
		c5.947-3.559,11.51-7.762,17.914-12.197C528.081,911.242,527.205,911.497,523.678,933.807z"/>
	<path fill="#FFFFFF" d="M819.166,1012.298c4.093-5.329,8.021-10.76,11.784-16.286
		C823.057,998.601,819.728,1003.219,819.166,1012.298z"/>
	<path fill="#FFFFFF" d="M539.91,447.245c-93.892,0-182.164,36.563-248.555,102.955c-66.392,66.391-102.955,154.663-102.955,248.555
		c0,66.495,18.359,130.16,52.644,185.241c15.292-3.688,28.498,2.593,33.975,17.904c3.233,9.041,11.381,9.573,17.492,13.434
		c2.804,1.771,5.183-2.107,6.198-5.41c9.616-31.289,19.265-62.567,29.013-93.815c1.202-3.854,0.003-6.392-2.424-9.456
		c-23.258-29.382-18.119-61.616,13.103-81.03c4.476-2.785,5.279-5.489,4.725-10.199c-3.299-27.979-6.38-55.985-9.421-83.997
		c-0.543-4.999-2.185-7.666-7.738-9.38c-22.59-6.979-36.924-24.592-37.831-46.96c-0.874-21.611,8.763-38.198,27.772-48.601
		c19.115-10.463,41.721-7.146,59.705,8.565c3.819,3.338,6.521,3.797,11.069,1.7c32.614-15.025,65.317-29.86,98.127-44.448
		c4.715-2.097,5.82-4.751,5.903-9.597c0.541-31.551,22.073-53.96,51.474-54.008c29.218-0.049,51.5,22.917,51.664,53.936
		c0.029,5.638,1.998,8.006,6.754,10.128c32.469,14.49,64.863,29.145,97.17,43.992c4.492,2.063,7.253,1.735,11.089-1.646
		c17.901-15.78,40.36-19.104,59.653-8.642c19.104,10.357,28.56,26.976,27.672,48.61c-0.926,22.553-15.028,39.877-37.748,46.948
		c-5.297,1.647-7.149,3.858-7.713,9.248c-2.926,28.021-6.18,56.01-9.625,83.97c-0.584,4.729-0.082,7.375,4.515,10.168
		c31.739,19.287,37.069,52.828,12.85,81.486c-3.662,4.332-2.277,7.582-1.084,11.446c8.818,28.588,17.66,57.17,26.641,85.707
		c1.398,4.443,1.588,12.447,7.201,11.103c5.965-1.435,13.598-3.301,16.908-10.592c7.604-16.758,15.155-22.134,31.109-21.321
		c33.984-54.908,52.179-118.294,52.179-184.485c0-93.892-36.563-182.163-102.955-248.555S633.802,447.245,539.91,447.245z"/>
	<path fill="#FFFFFF" d="M103.91,148.5v1532h872v-1532H103.91z M876.693,941.03c-18.409,43.525-44.764,82.613-78.329,116.18
		c-33.565,33.565-72.653,59.919-116.18,78.328c-45.066,19.062-92.934,28.727-142.275,28.727c-49.34,0-97.209-9.665-142.275-28.727
		c-43.525-18.409-82.614-44.763-116.18-78.328c-33.565-33.566-59.919-72.654-78.329-116.18
		c-19.062-45.066-28.727-92.935-28.727-142.275s9.665-97.208,28.727-142.275c18.41-43.525,44.763-82.614,78.329-116.179
		c33.566-33.566,72.654-59.919,116.18-78.329c45.066-19.062,92.935-28.727,142.275-28.727c49.341,0,97.208,9.665,142.275,28.727
		c43.526,18.41,82.614,44.763,116.18,78.329c33.565,33.565,59.92,72.654,78.329,116.179c19.062,45.066,28.727,92.935,28.727,142.275
		S895.755,895.964,876.693,941.03z"/>
	<path fill="#FFFFFF" d="M600.739,780.25c0.121,0.501,0.242,1.004,0.364,1.504c0.256-0.189,0.511-0.381,0.768-0.573
		C601.493,780.87,601.116,780.561,600.739,780.25z"/>
	<path fill="#FFFFFF" d="M587.968,952.58c4.465-0.434,6.791-3.33,9.553-5.375c18.677-13.832,36.898-28.314,56.055-41.439
		c12.453-8.534,22.372-16.315,16.992-34.067c-1.745-5.771-3.123-8.972-8.518-11.101c-16.037-6.319-32.201-12.426-47.763-19.788
		c-7.626-3.607-11.617-2.367-16.268,4.197c-5.108,7.212-12.311,12.571-20.233,16.647c-3.867,1.985-5.9,4.263-4.985,9.061
		C577.985,897.975,582.935,925.279,587.968,952.58z"/>
	<path fill="#FFFFFF" d="M326.658,858.579c1.986-1.672,3.591-2.974,5.144-4.336c18.963-16.635,43.131-16.629,62.25-0.082
		c1.708,1.48,2.606,4.227,5.511,4.097c-4.49-16.728-20.772-28.163-38.794-27.22C344.03,831.909,329.3,843.548,326.658,858.579z"/>
	<path fill="#FFFFFF" d="M600.442,779.685c-3.023-16.736-13.802-27.816-27.673-36.034c-33.362-19.772-80.066-1.766-87.883,33.742
		c4.062-1.337,5.523-5.214,8.064-7.868c20.159-21.067,50.051-27.045,76.643-15.59C582.539,759.512,591.524,769.477,600.442,779.685z
		"/>
	<path fill="#FFFFFF" d="M400.292,860.838c0.254-0.176,0.508-0.352,0.763-0.527c-0.424-0.565-0.848-1.133-1.271-1.699
		C399.953,859.354,400.123,860.095,400.292,860.838z"/>
	<path fill="#FFFFFF" d="M545.296,540.835c-19.148-1.163-33.206,8.258-40.621,27.345c3.943,0.268,4.899-3.479,7.107-5.316
		c11.819-9.833,25.129-13.31,40.234-10.5c11.012,2.051,18.794,9.469,27.24,15.829C575.072,552.742,561.542,541.823,545.296,540.835z
		"/>
	<path fill="#FFFFFF" d="M499.06,614.473c-0.912,0.518-1.951,0.805-2.914,1.242c-33.009,15.007-66.046,29.95-99,45.076
		c-7.732,3.549-8.98,24.902-1.683,29.285c29.286,17.584,58.758,34.861,87.997,52.523c4.516,2.728,7.35,2.059,10.994-1.244
		c7.942-7.197,17.23-12.31,27.673-14.799c5.562-1.325,6.976-4.211,6.818-9.624c-0.379-13.029-0.123-26.079-0.121-39.12
		c0-13.043,0.2-26.088-0.052-39.123c-0.297-15.168-18.504-11.483-23.582-21.9C504.206,614.767,502.064,612.771,499.06,614.473z"/>
</g>
</svg>
